<svg xmlns="http://www.w3.org/2000/svg" version="1.1" width="600px" height="600px" viewBox="0 0 200 200" style="overflow:hidden!important;"><g id="svga-group-wrapper"><g id="svga-group-backs-single"></g><g id="svga-group-humanwrap-move" transform="matrix(1,0,0,1,0,0)"><g id="svga-group-humanwrap"><g id="svga-group-hair-back-move" transform="matrix(1,0,0,1,0,0)"><g id="svga-group-hair-back"></g></g><g id="svga-group-humanbody-back"><path id="SvgjsPath228756" d="m168.5 219.5-1.7-21.5s.7-9-8.8-15.3-23.4-10.1-29.5-14.2c-6.1-4.1-9.2-4.5-9-16.9s.9-40.3.9-40.3H79.6s.7 27.9.9 40.3c.2 12.4-2.9 12.8-9 16.9-6.1 4.1-20 7.9-29.5 14.2S33.2 198 33.2 198l-1.6 21.5h136.9z" fill="#d79468" stroke-width="none" opacity="1" stroke="none"></path></g><g id="svga-group-chinshadow-single"><path id="SvgjsPath228752" d="M79.6 111.3s.69 27.31.89 39.9c5.71 4.82 10.39 8.33 12.01 10.3 1.9 2.3 4.4 2.3 7.5 1.4 3.1.9 5.7.9 7.5-1.4 1.62-1.97 6.29-5.48 12.01-10.3.21-12.59.89-39.9.89-39.9H79.6z" fill="#b86934" stroke-width="none" opacity="0.65" stroke="none"></path></g><g id="svga-group-humanbody-front"><path id="SvgjsPath228757" d="M73.8 175.9c5.1 2.9 11.8 5.2 17.6 5.7.4 0 .4-.6.1-.7-2.8-1.1-5.9-1.7-8.8-2.6-2.9-.9-5.8-2-8.8-2.7-.1-.1-.3.2-.1.3zm35.2 6.2c5.3-.6 11.3-3 15.9-5.8.3-.2.1-.6-.2-.5-2.6.9-5.2 2-7.8 2.9-2.6.9-5.4 1.5-8 2.5-.5.1-.5.9.1.9z" fill="#b86934" stroke-width="none" opacity="1" stroke="none"></path><path id="SvgjsPath228758" d="m168.4 219.4-2.1-21.4c0-2.2-.5-4.5-1.5-6.6-.9-2.1-2.3-3.9-3.9-5.5s-3.5-2.8-5.5-4c-2-1.2-4.1-2.2-6.2-3.1-4.2-1.9-8.6-3.6-12.9-5.4-2.2-.9-4.3-1.9-6.4-3-1.1-.6-2.1-1.2-3-1.9-1-.6-2-1.2-3-1.9s-2-1.5-2.8-2.6c-.8-1-1.3-2.2-1.7-3.4-.7-2.4-.8-4.8-.8-7.2 0-4.7.2-9.4.3-14.1.2-9.4.6-18.7.9-28l.6.6-20.4-.2-20.4-.1.3-.3.7 28c.1 4.7.3 9.3.4 14 0 2.4-.1 4.7-.8 7.1-.3 1.2-.9 2.3-1.6 3.3-.8 1-1.7 1.8-2.7 2.5s-2 1.3-2.9 2c-.9.6-1.9 1.3-3 1.9-2.1 1.2-4.2 2.1-6.4 3.1-4.3 1.9-8.6 3.6-12.8 5.6-2.1 1-4.2 2.1-6.1 3.2-2 1.2-3.8 2.4-5.4 4-1.6 1.6-2.9 3.4-3.8 5.4-.4 1-.8 2.1-1 3.1-.2 1.1-.4 2.2-.3 3.2v.2l-1.5 21.5-1-1.1 34 .1c11.3 0 22.7.1 34.1.2l34.2.3 34.4.5zm.2.2-34 .4-34.2.3c-11.4.1-22.9.2-34.4.2l-34.4.1h-1.1l.1-1.1 1.7-21.5v.1c-.1-5.1 2.2-9.8 5.7-13.3 1.7-1.7 3.8-3.1 5.8-4.3 2-1.2 4.2-2.2 6.3-3.2 4.3-2 8.7-3.7 13-5.4 2.1-.9 4.3-1.8 6.3-2.9 1-.5 1.9-1.1 3-1.8 1-.6 2-1.2 2.9-1.9.9-.6 1.8-1.4 2.4-2.2.7-.9 1.2-1.9 1.5-2.9.6-2.1.8-4.5.8-6.8 0-4.6-.1-9.3-.2-14l-.6-28v-.3h.3l20.4-.1 20.4-.2h.6v.6c-.1 9.3-.2 18.7-.4 28-.1 4.7-.2 9.4-.2 14 .1 2.3.2 4.6.8 6.7.3 1.1.8 2 1.4 2.9.6.8 1.4 1.6 2.4 2.2.9.6 1.9 1.3 2.9 1.9 1 .7 1.9 1.3 2.9 1.8 2 1.1 4.1 2.1 6.3 3 4.3 1.8 8.6 3.6 12.9 5.6 2.1 1 4.2 2.1 6.2 3.3 2 1.2 4 2.6 5.7 4.3 3.4 3.4 5.6 8.1 5.4 13v-.1l1.4 21.6zm-112.8-.4 1.9-13.8.1 13.8h-2zm88.6 0-1.9-13.8-.1 13.8h2z" fill="#a9561f" stroke-width="none" opacity="1" stroke="none"></path></g><g id="svga-group-clothes-single"><path id="SvgjsPath228919" d="M172 220s-1.3-17.2-2.6-22.7-4-12.6-5.1-13.4c-1.1-.9-1.9-.4-1.9-.4s-1.1-.9-4.5-3.4-18.5-7.2-20.4-8.5c-1.9-1.3-10.2-4.7-10.2-4.7l.2-2.3s-2.6-1.9-3.4-3.4c-.8-1.5-1.3-3.6-1.3-3.6l-.4-2.5s-.6 2-1 3.3-1 6.5-1.5 8.8c-.3 1.5-2.2 4.6-3.5 6.1-1.5 1.6-3.8 3-6.1 4.2-3.4 1.8-4.8 2.4-5.4 3.1-.6.7-.9 2.9-1.9 6l-1.1 2.6s-2.9-3.9-4.5-6.4c-1.6-2.5-3.1-3.4-4-3.4s-5.7.1-6.1-.2-1.8-1.7-2.4-2.8c-.7-1.1-3.4-8.1-4.1-9.5-.7-1.4-2-7.2-2.4-8.5-.3-1.3-.6-3.1-.6-3.1l-.4 1.1s-.8 3.4-1.7 4.9c-.8 1.5-3.4 3.4-3.4 3.4l.2 2.3s-8.3 3.4-10.2 4.7c-1.9 1.3-17 6-20.4 8.5s-4.5 3.4-4.5 3.4-.8-.4-1.9.4c-1.1.9-3.8 7.9-5.1 13.4S28 220 28 220" fill="#386e77" stroke-width="none" opacity="1"></path><path id="SvgjsPath228920" d="M163.9 185.7c-.1-.4-.8-.2-.7.2 2.9 9.4 4.1 19.1 5.7 28.8 0 .2.4.1.4-.1.6-10-1.9-19.6-5.4-28.9zm-3.1-1.1c-2.3 4.8-3.6 10.2-3.9 15.5 0 .2.3.2.3 0 .8-5.4 2.1-10.3 3.9-15.5 0 0-.2-.1-.3 0zm-59.6 12.5c-.2-.1-.4-.2-.2-.4.3-.3-.1-.7-.4-.6-1 .4-.1 2.1.7 1.4.1-.1 0-.3-.1-.4zm-.4 16.4c0-.2-.2-.3-.4-.1-.6.5 0 1.6.7 1.3.1 0 .1-.2 0-.2-.1-.4-.3-.6-.3-1zm6.9-31.2c-.3 0-.7-.1-.7-.5 0-.2-.4-.3-.4-.1-.1.4 0 .7.3.9.3.2.7.2.9 0 .2-.1.1-.3-.1-.3zm-22.9-3.5c-2.3 1.4-4.4 3.4-6.4 5.2-1.9 1.9-4.1 3.8-5.4 6.2-.1.2.1.3.3.2 2.1-1.8 3.7-4 5.7-5.9 2-1.9 4.2-3.5 6.2-5.4.1-.1-.2-.4-.4-.3zm-45.5 5.6c1 7.4 3.8 14.6 5 22.1 0 .1.1.1.1 0-.4-7.2-1-15.8-4.7-22.1-.1-.3-.5-.2-.4 0zm-2.7.6c-4 7.9-6.2 17.4-6.2 26.2 0 .2.4.3.4.1 1.3-9.1 3.3-17.3 6.3-26 .2-.4-.3-.6-.5-.3zm93.5 4.3c-2.5-8.2-4.1-15.7-4.3-24.3 0-.3-.4-.3-.5 0-.7 7.7.5 16.3 3.7 23.5-2.5-3.1-5.3-6.1-8.1-8.8-2-1.9-4.2-4.1-7.2-2.9-.3.1-.2.6.2.6 3.5-.8 6.7 4.4 8.9 6.5 2.2 2.1 4.3 4.4 6.6 6.3.3.2.8-.1.6-.4.1-.2.2-.3.1-.5zm-12.8-14.1c3.4-3.2 5.9-8.9 4.8-13.7-.1-.2-.4-.2-.4.1-.3 2.4-.3 4.8-1.2 7.1-.8 2.3-2.1 4.4-3.5 6.3-.1.1.2.3.3.2zm12.4-3.9c8.6 4.8 18.3 8.1 27.5 11.5.3.1.5-.4.2-.5-8.4-4.8-17.8-9.7-27.4-11.9-.4-.1-.8.6-.3.9z" fill="#4d7e86" stroke-width="none" opacity="1"></path><path id="SvgjsPath228921" d="M158.3 201.6c-.2 2.9-.3 5.7-.3 8.6v4.3c.1 1.4.1 2.9.2 4.3.1-1.4.2-2.9.3-4.3l.3-4.3.6-8.5c.2-2.8.5-5.6 1-8.4.3-1.4.6-2.8 1-4.1.4-1.4.8-2.7 1.4-4.1-1.4 2.5-2.4 5.2-3.1 8-.9 2.8-1.2 5.6-1.4 8.5zm-51.2-20.3c.6 0 1.2.5 1.2 1.2s-.5 1.2-1.2 1.2-1.2-.5-1.2-1.2.6-1.2 1.2-1.2zm-6.2 14.4c.6 0 1.2.5 1.2 1.2s-.5 1.2-1.2 1.2-1.2-.5-1.2-1.2.6-1.2 1.2-1.2zm-.1 17.1c.6 0 1.2.5 1.2 1.2s-.5 1.2-1.2 1.2-1.2-.5-1.2-1.2.6-1.2 1.2-1.2zm15.7-31.9s.1-.1 0 0c.1-.1 0 0 0 0zm55 29.3c-.2-3.3-.5-6.6-.9-9.8-.4-3.3-1.3-6.5-2.3-9.7-.5-1.6-1.1-3.1-1.8-4.7-.4-.8-.7-1.5-1.2-2.3-.4-.5-.8-.8-1.3-1-.3-.1-.6-.2-.9-.2h-.4l-3.6-2.8c-.6-.5-1.4-1-2.1-1.4-.8-.4-1.5-.8-2.2-1.1-3-1.4-6.1-2.5-9.1-3.6l-4.6-1.7c-.8-.3-1.5-.6-2.2-.9-.2-.1-.4-.2-.5-.2-.1-.1-.3-.1-.5-.3-.4-.2-.8-.4-1.1-.6-2.8-1.4-5.7-2.5-8.6-3.7l.1-1.9c0-.2-.1-.4-.2-.5-.7-.5-1.4-1.1-2.1-1.7-.3-.3-.6-.6-.9-1-.3-.3-.5-.7-.7-1.1-.4-.8-.7-1.7-.9-2.6-.2-.9-.3-1.8-.5-2.7 0-.1-.1-.2-.2-.3-1-.8-2.2-.9-2.2-.9-.2 1.8.3 4.7.4 5.4 0 .2-.1.4-.1.6l-.7 4.9c-.1.8-.2 1.6-.4 2.4-.2.7-.5 1.5-.9 2.2-.8 1.4-1.6 2.8-2.7 4-2.3 2.3-5.3 3.6-8.2 5.1-.7.4-1.5.7-2.2 1.2-.4.2-.8.5-1 .9-.3.4-.4.8-.5 1.2-.5 1.6-.9 3.2-1.4 4.7l-.7 1.7-2.6-3.9c-1.1-1.5-1.9-3.3-3.6-4.6-.4-.3-.9-.6-1.5-.8-.3-.1-.7-.1-.9-.1h-.7l-2.8-.1c-.5 0-.9 0-1.4-.1-.2 0-.4 0-.6-.1-.1 0-.1-.1-.2-.2-.6-.6-1.2-1.3-1.7-2.1-.4-.6-.8-1.6-1.1-2.4l-1.1-2.6-2.1-5.2c-.6-1.7-1-3.6-1.5-5.4l-.5-1.6-.1-.3c.1-.2.2-.6.3-1.1.1-1 .2-4 .2-4s-2 .4-2.5.8c-.2.1-.5.3-.6.6l-.4 1.1v.1c-.2.8-.4 1.6-.7 2.3-.2.8-.5 1.5-.9 2.2-.3.6-.8 1.1-1.4 1.7-.6.5-1.2 1.1-1.8 1.5-.3.2-.4.6-.4.9l.2 1.6c-2.8 1.2-5.5 2.3-8.3 3.7-.4.2-.7.4-1.1.6l-.3.2-.2.1c-.1.1-.3.1-.5.2-.7.3-1.5.6-2.2.9l-4.6 1.7c-3.1 1.1-6.1 2.3-9.1 3.6-.8.3-1.5.7-2.2 1.1-.7.4-1.6.9-2.2 1.4l-3.5 2.8h-.4c-.3 0-.6.1-.9.2-.5.2-1 .5-1.3 1-.6.8-.9 1.6-1.2 2.3-.7 1.5-1.3 3.1-1.8 4.7-1 3.1-1.9 6.4-2.3 9.7-.4 3.3-.7 6.6-.9 9.8-.2 3.3-.4 6.6-.6 9.8h.2c.3-3.3.7-6.5 1.1-9.8.4-3.2.8-6.5 1.3-9.7.5-3.2 1.5-6.3 2.6-9.4l1.8-4.5c.3-.7.7-1.5 1.1-2 .1-.2.4-.4.6-.4.1 0 .2-.1.3-.1h.2l.6-.1c.4 1.2.8 2.4 1.2 3.7.4 1.5.8 2.9 1.1 4.4.7 3 1.2 6 1.6 9 .4 3 .8 6.1 1.1 9.1.2 1.5.3 3.1.5 4.6.2 1.5.3 3.1.4 4.6.2-3.1.1-6.2-.1-9.2-.2-3.1-.5-6.1-.9-9.2-.4-3.1-1-6.1-1.8-9.1-.8-2.7-1.7-5.4-3-8h.2l3.9-2.9c.7-.5 1.2-.9 1.9-1.2.7-.4 1.4-.7 2.2-1 3-1.2 6-2.3 9.1-3.5l4.6-1.7c.8-.3 1.5-.6 2.3-.9l.6-.3.3-.2.2-.1c.3-.2.7-.4 1-.5 2.7-1.3 5.6-2.5 8.4-3.7.1 1.4.2 2.8.1 4.1 0 1.3-.1 2.5-.2 3.8-.2 1.2-.4 2.4-.7 3.7-.5 2.5-.9 5.1-1.4 7.6-.5 2.5-.8 5.1-1.3 7.6 0 .3 0 .6.2.8.3.4 1 .4 1.4.1 1.5-1.3 2.9-2.7 4.3-4.1s2.8-2.8 4.1-4.2c.7-.7 1.3-1.5 1.9-2.3l.9-1.2c.2-.4.5-.8.8-1.1l.5-.5c2.3 1.4 4.8 2.3 7.4 2.9.9.2 1.9.4 2.8.5.6 1.8 1.4 3.4 2.3 5l.6 1.2c.2.4.3.9.6 1.3.3.7.7 1.4 1.1 2.2-.1.3-.2.5-.3.9-.2 1.4-.1 2.8-.1 4.1l.2 4c.1 1.3 0 2.6 0 4 0 1.3 0 2.7.1 4l.1 4c.1 1.3.1 2.7.2 4 .1-1.3.2-2.7.3-4l.2-4c.1-2.7.2-5.3.1-8.1-.1-1.4-.2-2.7-.2-4-.1-1.3-.2-2.7-.1-3.9 0-.5.4-1.2.7-1.8l.9-1.8c.5-1.1 1.1-2.1 1.5-3.1.3.1.6 0 .7-.3l1-2.6c.1-.3.1-.5.2-.8 1.1.1 2.1 0 3.2-.2.9-.1 1.8-.4 2.7-.6-1.4 2.6-2.8 5.2-4.1 7.8-.7 1.4-1.6 2.6-2.4 4-.4.7-.8 1.5-.8 2.4 0 .8 0 1.6.1 2.4.2 3.1.5 6.2.7 9.3.1 1.5.1 3.1.1 4.6.1 1.6.1 3.1.2 4.7.2-3.1.4-6.2.4-9.4-.1-3.1-.3-6.2-.5-9.3-.1-.8-.1-1.6-.1-2.3 0-.7.3-1.3.6-2 .7-1.3 1.6-2.7 2.2-4.1 1.2-2.7 2.4-5.4 3.5-8.2.3-.1.6-.2.8-.2 1.2-.4 2.3-.9 3.3-1.6 1-.6 1.9-1.4 2.8-2.2-1.1.5-2 1.1-3.1 1.5-1.1.5-2.2 1-3.3 1.4-2.1.8-4.2 1.3-6.4 1.8.3-1.3.7-2.6 1-3.8.1-.4.2-.8.4-1 .2-.3.5-.5.8-.7l2.1-1.2c.7-.3 1.3-.7 2-1 .9-.1 1.8-.1 2.7.1.6.1 1.1.3 1.5.7.5.4.9.8 1.3 1.2l1 1c1.3 1.4 2.5 3 3.8 4.5 1.7 2 3.7 3.4 5.7 4.9 2 1.5 4.1 2.8 6.2 4.1.2.1.5.2.7.1.5-.1.9-.6.7-1.2-.5-2.2-1.1-4.4-1.6-6.6s-1.1-4.4-1.7-6.6c-.6-2.2-1.2-4.4-1.7-6.6-.4-1.9-.8-3.8-1-5.7 2.7 1.2 5.5 2.4 8 3.8.4.2.7.4 1 .6.1.1.3.2.6.3s.4.2.6.3c.8.4 1.5.6 2.3.9l4.6 1.7 4.6 1.7c1.5.6 3 1.1 4.5 1.8.7.3 1.5.6 2.1 1 .7.4 1.3.7 1.9 1.2l3.9 2.9.9.1h.2c.1 0 .2 0 .4.1s.5.3.6.4c.4.5.8 1.3 1.1 2 .7 1.5 1.2 3 1.8 4.5 1.1 3.1 2.1 6.2 2.6 9.4s.9 6.5 1.3 9.7l1.1 9.8h.2c.2-3.2 0-6.5-.3-9.7zm-89.2-28.1c-.4.4-.7.7-1 1.1-.3.4-.6.7-.9 1.1-.7.7-1.4 1.4-2.1 2-1.4 1.4-2.9 2.6-4.3 3.9l-2.3 2.1c.3-1.6.6-3.2.8-4.9.4-2.5.8-5.1 1.2-7.6.2-1.2.4-2.6.5-3.9.1-1.3.1-2.6 0-3.9-.1-1.6-.3-3.1-.6-4.6.2-.2.3-.5.2-.8l-.2-1.8c.5-.4 1-.9 1.5-1.3.6-.6 1.3-1.3 1.8-2.2.4-.8.7-1.6.9-2.3l.5 1.8c.5 1.8.9 3.7 1.6 5.5l2.2 5.3 1.1 2.6.6 1.3.3.7c.1.2.3.5.4.7.6.9 1.2 1.6 2 2.3l.1.1c-1.5.8-3 1.6-4.3 2.8zm8.8 2c-2.5-.6-5-1.2-7.6-1.9.9-1 2.1-1.9 3.2-2.6l.1.1c.1.1.1.1.3.2.2.1.4.1.4.1.3.1.6.1.8.1H93.7c.3.1.7.3 1 .5 1.3 1 2.3 2.7 3.4 4.2l.5.6c-1.2-.2-2.4-.3-3.7-.5-1.2-.3-2.5-.5-3.8-.8zm8.7 8.3c-.3.6-.7 1.1-1 1.7-.2.3-.3.6-.5.8-.1-.7-.3-1.5-.5-2.2-.1-.5-.3-.9-.4-1.4-.2-.5-.4-.9-.6-1.4-.9-1.6-1.9-3.2-3.1-4.6.4 0 .8.1 1.2.1 1.3.1 2.6 0 3.8-.2l2.8 3.9c0 .1.1.1.2.1l-1.9 3.2zm28.3-15.3.7 3.3c.5 2.2 1 4.4 1.5 6.7.4 1.4.7 2.9 1 4.3-1.4-.9-2.8-1.8-4.1-2.7l-3-2.1c-1-.7-1.9-1.5-2.7-2.3-1.7-1.8-3.4-3.6-5.3-5.2-.5-.4-1-.8-1.5-1.1-.6-.4-1.2-.6-1.9-.6-.8-.1-1.5 0-2.2.2 2.1-1.1 4.2-2.3 5.9-4 1.2-1.2 2-2.7 2.8-4.1.4-.7.8-1.5 1-2.3.2-.8.3-1.6.5-2.4l.8-4.9c.1-.4.1-.8.2-1.2l.3-1.2.2-.6c.1.3.1.6.2 1 .2.9.5 1.9.9 2.8.2.4.4.9.7 1.3.3.4.6.8 1 1.1.6.6 1.2 1.2 1.9 1.7l-.2 2c0 .2.1.5.3.6 0 2.1.2 4.2.5 6.3.1 1.2.3 2.3.5 3.4z" fill="#184f58" stroke-width="none" opacity="1"></path></g><g id="svga-group-head" transform="matrix(1,0,0,1,0,0)"><g id="svga-group-ears-left-move" transform="matrix(1,0,0,1,0,0)"><g id="svga-group-ears-left"><path id="SvgjsPath228699" d="M63.5 96.9s-3-5.1-4.6-7.4c-1.7-2.3-3.8-4.7-4.6-.7s-.8 11.6.3 16.9c1.1 5.2 5.8 10.5 7.8 10.5s3.4-7.9 3.3-10.6c-.1-2.7-1.1-6.7-2.2-8.7z" fill="#d79468" stroke-width="none" opacity="1" stroke="none"></path><path id="SvgjsPath228700" d="M65.1 96.3c.3.7-.2 4.1 0 4.9.4 1.5.7 3.1.8 4.7 0 1.6-.1 3.1-.4 4.5-.2 1.4-.6 2.8-1 4.1-.2.6-.5 1.2-.9 1.7-.2.2-.4.5-.7.6-.1.1-.3.1-.5.1s-.3 0-.5-.1c-.6-.2-1.1-.5-1.6-.9-.3-.2-.5-.4-.7-.6l-.7-.7c-.9-1-1.8-2.2-2.5-3.5s-1.4-2.7-1.8-4.3l-.3-1.2c-.1-.4-.1-.8-.2-1.2-.1-.8-.2-1.6-.3-2.3-.2-1.5-.2-3.1-.3-4.6-.1-3-.1-6.1.3-9 .1-.7.3-1.5.8-2l.2-.2c.1 0 .1-.1.2-.1.1-.1.3-.1.4-.2.1 0 5.3.5 6 1.8.8 1.4 3.5 7.8 3.7 8.5zM58.8 90c-.8-1-1.7-2.1-2.5-2.5-.4-.2-.8-.2-1 .2-.3.3-.5.9-.6 1.5-.3 1.3-.5 2.7-.6 4.1s-.2 2.9-.2 4.4.1 3 .3 4.5c.1.8.2 1.5.4 2.3.1.4.2.7.2 1.1.1.4.2.7.3 1.1.5 1.4 1.1 2.7 1.9 3.9.7 1.2 1.6 2.2 2.4 3.1.8.9 1.8 1.6 2.6 1.8.7.2 1.3-.9 1.7-1.9.4-1.1.8-2.4 1-3.7.3-1.3.5-2.7.6-4.1 0-1.4-.2-3-.5-4.5s-.8-3-1.5-4.3c-1.3-2.5-2.9-4.9-4.5-7z" fill="#c87d4d" stroke-width="none" opacity="1" stroke="none"></path><path id="SvgjsPath228701" d="M56.8 93.1c1.5 1.2 2.9 3.3 3.5 5.7 0 .2-.1.2-.2.1 0 0 0-.1-.1-.1-.4-.5-1-1.1-1.4-1-.8.1-.6 1.4-.3 2.5.4 1.5 1 2.8 1.7 4.1.1.1 0 .3-.1.2-1-1.4-2.5-4.4-2.3-6.4.2-1.7 1.4-1 2.2-.1-.6-1.3-1.2-2.4-2-3.4-1-1.2-3.2-3.1-3.5-.6 0 .1-.2.1-.2-.1-.1-2.3 1.7-1.7 2.7-.9z" fill="#b86934" stroke-width="none" opacity="1" stroke="none"></path><path id="SvgjsPath228702" d="M60.7 107.4c.9 2.4-.6 3.1-1.6 2.1-1.6-1.6-2.9-5.2-3.2-8.2 0-.2.1-.2.2 0 .3 1.7.6 3.2 1.3 4.7.4.9.9 1.9 1.4 2.5.3.5.7.8 1.1 1 .8-.1 1.1-.8.7-2.1-.1 0 0-.1.1 0z" fill="#b86934" stroke-width="none" opacity="1" stroke="none"></path></g></g><g id="svga-group-ears-right-move" transform="matrix(1,0,0,1,0,0)"><g id="svga-group-ears-right"><path id="SvgjsPath228703" d="M136.5 96.9s3-5.1 4.6-7.4c1.7-2.3 3.8-4.7 4.6-.7s.8 11.6-.3 16.9c-1.1 5.2-5.8 10.5-7.8 10.5s-3.4-7.9-3.3-10.6 1.1-6.7 2.2-8.7z" fill="#d79468" stroke-width="none" opacity="1" stroke="none"></path><path id="SvgjsPath228704" d="M138.5 87.9c.7-1.3 5.9-1.8 6-1.8s.3.1.4.2c.1 0 .1.1.2.1l.2.2c.4.5.6 1.3.8 2 .5 2.9.4 6 .3 9-.1 1.5-.1 3.1-.3 4.6-.1.8-.2 1.5-.3 2.3-.1.4-.1.8-.2 1.2l-.3 1.2c-.4 1.6-1.1 3-1.8 4.3s-1.6 2.5-2.5 3.5c-.2.3-.5.5-.7.7s-.5.4-.7.6c-.5.4-1 .7-1.6.9-.2 0-.3.1-.5.1s-.3-.1-.5-.1c-.3-.1-.5-.4-.7-.6-.4-.5-.7-1.1-.9-1.7-.5-1.3-.8-2.6-1-4.1-.2-1.4-.4-2.9-.4-4.5.1-1.6.4-3.2.8-4.7.2-.8-.3-4.2 0-4.9.3-.8 3-7.2 3.7-8.5zm-1.9 9.1c-.7 1.3-1.1 2.8-1.5 4.3-.3 1.5-.5 3-.5 4.5.1 1.4.3 2.8.6 4.1.3 1.3.6 2.6 1 3.7s1 2.2 1.7 1.9c.8-.2 1.8-1 2.6-1.8.9-.9 1.7-1.9 2.4-3.1s1.4-2.4 1.9-3.9c.1-.4.2-.7.3-1.1s.2-.7.2-1.1c.1-.8.3-1.5.4-2.3.2-1.5.3-3 .3-4.5s0-3-.2-4.4c-.1-1.4-.3-2.8-.6-4.1-.1-.6-.3-1.2-.6-1.5s-.6-.4-1-.2c-.8.5-1.7 1.5-2.5 2.5-1.5 2.1-3.1 4.5-4.5 7z" fill="#c87d4d" stroke-width="none" opacity="1" stroke="none"></path><path id="SvgjsPath228705" d="M143.2 93.1c-1.5 1.2-2.9 3.3-3.5 5.7 0 .2.1.2.2.1 0 0 0-.1.1-.1.4-.5 1-1.1 1.4-1 .8.1.6 1.4.3 2.5-.4 1.5-1 2.8-1.7 4.1-.1.1 0 .3.1.2 1-1.4 2.5-4.4 2.3-6.4-.2-1.7-1.4-1-2.2-.1.6-1.3 1.2-2.4 2-3.4 1-1.2 3.2-3.1 3.5-.6 0 .1.2.1.2-.1.1-2.3-1.7-1.7-2.7-.9z" fill="#b86934" stroke-width="none" opacity="1" stroke="none"></path><path id="SvgjsPath228706" d="M139.3 107.4c-.9 2.4.6 3.1 1.6 2.1 1.6-1.6 2.9-5.2 3.2-8.2 0-.2-.1-.2-.2 0-.3 1.7-.6 3.2-1.3 4.7-.4.9-.9 1.9-1.4 2.5-.3.5-.7.8-1.1 1-.8-.1-1.1-.8-.7-2.1.1 0 0-.1-.1 0z" fill="#b86934" stroke-width="none" opacity="1" stroke="none"></path></g></g><g id="svga-group-faceshape-wrap"><g id="svga-group-faceshape-single"><path id="SvgjsPath228737" d="M141 85.4c-1.2-28.5-19.7-44.1-41-44.1S60.2 57 59 85.4c0 0-.3 18.4 3.1 28.6 3.4 10.3 8.4 17.7 15.4 23.8s13.09 10.05 14.99 12.25c1.9 2.3 4.42 2.44 7.52 1.54 3.1.9 5.72.93 7.52-1.37 1.9-2.3 7.97-6.31 14.97-12.41 7-6.1 12-13.6 15.4-23.8S141 85.4 141 85.4z" fill="#d79468" stroke-width="none" opacity="1" stroke="none"></path><path id="SvgjsPath228738" d="M122.5 137.9c7-6.1 12-13.6 15.4-23.8 3.93-11.67 3.1-28.6 3.1-28.6-1.2-28.5-19.71-44.29-41.01-44.29C78.59 41.21 60.2 57 59 85.5c0 0-.3 18.4 3.1 28.6 3.4 10.3 8.4 17.7 15.4 23.8s13.1 10.6 15 12.8c1.99 1.96 4.4 2.3 7.5 1.4 3.1.9 5.76.43 7.5-1.4 1.9-2.3 8-6.7 15-12.8zm-17.95 12.96c-.96.39-2.6.34-3.85-.3l-.7-.2-.7.2c-.5.1-2.3.4-2.6.4-.4 0-.7 0-1-.1s-.9-.61-1-.71-.6-.61-.6-.61l-.2-.2-.2-.2-.4-.4-.7-.61c-.9-.81-1.8-1.61-2.7-2.32-3.6-2.93-7.2-5.75-10.6-8.68-1.7-1.41-3.3-2.93-4.8-4.54s-2.9-3.33-4.1-5.15c-1.3-1.82-2.4-3.73-3.4-5.65-1-2.02-1.9-4.04-2.8-6.15l-.6-1.61-.5-1.51c-.1-.3-.8-3.23-.8-3.23-.5-2.22-.9-4.44-1.2-6.66-.7-4.54-1-9.08-1.2-13.72v-3.44c.1-1.11.1-2.32.2-3.43.2-2.32.5-4.54 1-6.76l.4-1.72c.1-.5.7-2.42.7-2.42s2.7-6.66 3.8-8.58c.3-.5.6-1.01.9-1.41l.9-1.41c.6-.91 1.3-1.82 2-2.72 1.4-1.72 3-3.33 4.7-4.74 3.4-2.83 7.3-5.05 11.4-6.46 4.1-1.51 8.5-2.22 12.8-2.32 2.2-.1 4.4 0 6.5.3.5.1 1.1.1 1.6.2l1.6.3c.5.1 2.4.61 2.4.61.3.1.5.1.8.2 4.2 1.21 8.2 3.03 11.8 5.55 1.8 1.21 3.5 2.62 5.1 4.24 1.6 1.61 3 3.33 4.3 5.15s2.5 3.83 3.5 5.85c.5 1.01.9 2.12 1.4 3.13.4 1.11.8 2.39 1.1 3.5 1.52 6.15 1.95 13.41 1.95 13.41.15 4.03.09 7.33-.21 10.96-.3 3.53-.53 6.93-1.23 10.36-.2.91-.8 3.43-1 3.94 0 0-.7 2.12-.8 2.52-.1.4-1 2.42-1 2.42-.2.4-1.2 2.83-1.6 3.63-.4.81-.8 1.61-1.2 2.32-.8 1.51-1.8 3.03-2.7 4.44-1 1.41-2 2.83-3.1 4.14-.5.71-1.1 1.31-1.7 1.92s-3.4 3.23-3.8 3.53l-1 .81-1 .81c-1.4 1.11-2.7 2.22-4.1 3.43l-4.26 3.79c-1.41 1.11-5.03 4.88-7.5 5.9z" fill="#a9561f" stroke-width="none" opacity="1" stroke="none"></path></g></g><g id="svga-group-mouth-single-move" transform="matrix(1,0,0,1,0,1)"><g id="svga-group-mouth-single" transform="matrix(0.7999993000000002,0,0,0.7999993000000002,19.990070117588402,26.31918620252263)"><path id="SvgjsPath229664" d="m88.3 129.4-1.7-.9s1.8 4.2 8.1 5.3c4.1.7 10.8.7 14.6-1.1 3.7-1.8 3.7-4.1 3.7-4.1l-14.6-2-5.8-.2-2.8 1.2-1.5 1.8z" fill="#9b565f" stroke-width="none" opacity="1" transform="translate(0 3)"></path><path id="SvgjsPath229665" d="M86.4 128.2c0 .4 1.6 1.9 3.8 1.4.7-.4 1.9-.8 2.7-1 .8-.2 2.2.3 2.6.4.3.1 2.3.7 4.3.7s4.3-.8 5.1-.9c.8-.2 2.1 0 4 .9 2.8 1.3 4.6-1.5 4.6-1.5s-1.6-.7-2-2.1c-.5-1.7-1.9-3.7-5.6-3-3.8.7-4.2 1.5-8.7.4-4.5-1-7.3-.5-8.2 1.7-1.3 2.9-2.6 2.7-2.6 3z" fill="#8c4049" stroke-width="none" opacity="1" transform="translate(0 3)"></path><path id="SvgjsPath229666" d="M111.3 129.2c-1.5 0-2.4-.7-3.7-1.3-.7-.3-1.3-.5-1.9-.4.4-.3.7-.6 1-1 .2-.2 0-.6-.3-.4-2 1-3.7 2.1-6 2.3-2 .2-4.1-.1-6-.8-.2-.1-.2.2-.1.2 3 1.8 7.8 2.2 10.9.1 2.2-.1 4 2.6 6.2 1.8.2-.2.2-.5-.1-.5zm-6.8-5.4c-1.9.2-3.8.5-5.7.4-1.9-.1-3.8-.8-5.8-.7-2.8.1-4.2 2.4-4.7 5-.1.2.3.4.4.1.5-1.7 1-3.8 3-4.4 1.6-.5 3.6.6 5.2.8 2.5.4 5.3.1 7.7-1 0-.1 0-.2-.1-.2z" fill="#a3626b" stroke-width="none" opacity="1" transform="translate(0 3)"></path></g></g><g id="svga-group-eyes-left-move" transform="matrix(1,0,0,1,0,1)"><g id="svga-group-eyes-left" transform="matrix(0.9499999,0,0,0.9499999,4.028217742698672,4.901509741964716)"><g id="svga-group-eyesback-left"><path id="SvgjsPath228825" d="M92.3 99.5s-1.4-2.7-3.1-3.9c-1.7-1.3-4.6-3.1-9.3-2.1-4.7.9-8 4.7-8 4.7s5.9 2.2 11.3 2.2c5.3-.1 9.1-.9 9.1-.9z" fill="#ffffff" stroke-width="none" opacity="1"></path></g><g id="svga-group-eyesiriswrapper-left" transform="matrix(1,0,0,1,0,0)"><g id="svga-group-eyesiriscontrol-left" transform="matrix(1,0,0,1,0,0)"><g id="svga-group-eyesiris-left" transform="matrix(0.8499993000000002,0,0,0.8499993000000002,12.300057399999986,14.475067549999977)"><path id="SvgjsPath230473" d="M82 91.5c2.7 0 4.9 2.2 4.9 4.9s-2.2 4.9-4.9 4.9-4.9-2.2-4.9-4.9 2.2-4.9 4.9-4.9z" fill="#724f7c" stroke-width="none" opacity="1"></path><path id="SvgjsPath230474" d="M82 93.8c1.4 0 2.6 1.2 2.6 2.6S83.4 99 82 99s-2.6-1.2-2.6-2.6 1.2-2.6 2.6-2.6z" fill="#000000" stroke-width="none" opacity="1"></path><path id="SvgjsPath230475" d="m81.3 94.3-.5-.5c-.2-.2-.4-.3-.7-.3s-.5.1-.7.3c-.2.2-.3.4-.3.7s.1.5.3.7l.5.5c.2.2.4.3.7.3.2 0 .5-.1.7-.3.4-.5.4-1 0-1.4zm2.5 4.4c.8 0 .8-1.3 0-1.3s-.9 1.3 0 1.3z" fill="#ffffff" stroke-width="none" opacity="1"></path></g></g></g><g id="svga-group-eyesfront-left"><path id="SvgjsPath228833" d="M70.73 98.03c0 6.9 4.93 12.5 11.02 12.5s11.02-5.6 11.02-12.5-4.93-12.5-11.02-12.5-11.02 5.59-11.02 12.5zm1.2.17s3.31-3.76 8-4.69c4.69-.93 7.55.87 9.25 2.12 1.7 1.25 3.12 3.92 3.12 3.92s-3.76.77-9.09.84c-5.34.06-11.28-2.19-11.28-2.19z" fill="#d79468" stroke-width="none" opacity="1" stroke="none"></path><path id="SvgjsPath228834" d="M91.56 97.86s-2.08-4.66-7.97-5.44c-5.89-.79-14.54 3.87-15.21 5.61-.67 1.74 14.43 3.48 18.3 2.53 0 0-11.56-.39-14.54-2.3 0 0 2.3-4.27 8.93-4.83 6.61-.57 10.04 3.7 10.49 4.43z" fill="#d79468" stroke-width="none" opacity="1" stroke="none"></path><path id="SvgjsPath228835" d="M92.49 100.56c-2.99 2.4-6.96 3.48-10.76 3.36-.17-.01-.17-.25 0-.26 3.97-.16 7.22-1.31 10.68-3.21.07-.04.15.05.08.11z" fill="#c87d4d" stroke-width="none" opacity="1" stroke="none"></path><path id="SvgjsPath228836" d="M71.75 98.72c6.44 2.32 13.78 2.6 20.43.97.13.06.34-.05.27-.21-3.52-8.75-15.59-8.02-20.9-1.51-.22.27-.14.63.2.75zm.88-.65c5.34-6.21 15.21-6.15 19.35 1.37-6.45 1.12-13.13.73-19.35-1.37z" fill="#0f190c" stroke-width="none" opacity="1" stroke="none"></path></g></g></g><g id="svga-group-eyes-right-move" transform="matrix(1,0,0,1,0,1)"><g id="svga-group-eyes-right" transform="matrix(0.9499999,0,0,0.9499999,5.972052883412928,4.901509741964716)"><g id="svga-group-eyesback-right"><path id="SvgjsPath228826" d="M107.7 99.5s1.4-2.7 3.1-3.9c1.7-1.3 4.6-3.1 9.3-2.1 4.7.9 8 4.7 8 4.7s-5.9 2.2-11.3 2.2c-5.3-.1-9.1-.9-9.1-.9z" fill="#ffffff" stroke-width="none" opacity="1"></path></g><g id="svga-group-eyesiriswrapper-right" transform="matrix(1,0,0,1,0,0)"><g id="svga-group-eyesiriscontrol-right" transform="matrix(1,0,0,1,0,0)"><g id="svga-group-eyesiris-right" transform="matrix(0.8499993000000002,0,0,0.8499993000000002,17.700082599999973,14.475067549999977)"><path id="SvgjsPath230476" d="M118 91.5c2.7 0 4.9 2.2 4.9 4.9s-2.2 4.9-4.9 4.9-4.9-2.2-4.9-4.9 2.2-4.9 4.9-4.9z" fill="#724f7c" stroke-width="none" opacity="1"></path><path id="SvgjsPath230477" d="M118 93.8c1.4 0 2.6 1.2 2.6 2.6S119.4 99 118 99s-2.6-1.2-2.6-2.6 1.2-2.6 2.6-2.6z" fill="#000000" stroke-width="none" opacity="1"></path><path id="SvgjsPath230478" d="m117.4 94.3-.5-.5c-.2-.2-.4-.3-.7-.3s-.5.1-.7.3c-.2.2-.3.4-.3.7s.1.5.3.7l.5.5c.2.2.4.3.7.3.2 0 .5-.1.7-.3.3-.5.4-1 0-1.4zm2.4 4.4c.8 0 .8-1.3 0-1.3s-.8 1.3 0 1.3z" fill="#ffffff" stroke-width="none" opacity="1"></path></g></g></g><g id="svga-group-eyesfront-right"><path id="SvgjsPath228837" d="M118.26 85.53c-6.08 0-11.02 5.6-11.02 12.5s4.93 12.5 11.02 12.5 11.02-5.6 11.02-12.5-4.94-12.5-11.02-12.5zm-1.47 14.85c-5.33-.06-9.09-.84-9.09-.84s1.41-2.67 3.12-3.92c1.7-1.25 4.56-3.05 9.25-2.12 4.69.93 8 4.69 8 4.69s-5.94 2.26-11.28 2.19z" fill="#d79468" stroke-width="none" opacity="1" stroke="none"></path><path id="SvgjsPath228840" d="M108.44 97.86s2.08-4.66 7.97-5.44c5.89-.79 14.54 3.87 15.21 5.61.67 1.74-14.43 3.48-18.3 2.53 0 0 11.56-.39 14.54-2.3 0 0-2.3-4.27-8.93-4.83-6.61-.57-10.04 3.7-10.49 4.43z" fill="#cf885a" stroke-width="none" opacity="1" stroke="none"></path><path id="SvgjsPath228841" d="M107.51 100.56c2.99 2.4 6.96 3.48 10.76 3.36.17-.01.17-.25 0-.26-3.97-.16-7.22-1.31-10.68-3.21-.07-.04-.15.05-.08.11z" fill="#c87d4d" stroke-width="none" opacity="1" stroke="none"></path><path id="SvgjsPath228842" d="M128.45 97.96c-5.31-6.51-17.38-7.23-20.9 1.51-.07.17.14.28.27.21 6.65 1.63 13.98 1.35 20.43-.97.34-.11.42-.47.2-.75zm-20.43 1.47c4.14-7.52 14.01-7.58 19.35-1.37-6.22 2.11-12.9 2.5-19.35 1.37z" fill="#0f190c" stroke-width="none" opacity="1" stroke="none"></path></g></g></g><g id="svga-group-facehighlight-single"></g><g id="svga-group-eyebrows-left-move" transform="matrix(1,0,0,1,1,2)"><g id="svga-group-eyebrows-left-rotate" transform="matrix(0.9914448857307434,0.13052619993686676,-0.13052619993686676,0.9914448857307434,11.95799446105957,-9.616644859313965)"><g id="svga-group-eyebrows-left"><path id="SvgjsPath228899" d="M76.7 85.3c.9-.1 7.5 1.2 8.8 1.4 3.3.4 5.5-.3 5.8-.8s1.1-1.2.5-2.3c-.6-1.1-7.4-1.9-11.8-.7-8.7 2.4-13.2 7.4-13.2 7.4 2.5-2.5 9-4.9 9.9-5z" fill="#543c32" stroke-width="none" opacity="1" stroke="none"></path><path id="SvgjsPath228900" d="M77.2 85.1c1.2 0 2.4-.4 3.5-.7.1 0 0-.2-.1-.2-1.1.3-2.3.4-3.4.7-.1.1-.1.2 0 .2zm2.3.2c-.1 0-.1.2.1.2 1.3-.1 2.6-.5 3.8-.8.8-.2 1.5-.5 1.9-1 .1-.1-.1-.2-.2-.1-1.2 1-3.9 1-5.6 1.7zm3.8.6c2.3.3 5.1-.7 6.3-2.2.1-.1-.1-.2-.2-.1-.8.7-1.6 1.2-2.7 1.6s-2.2.4-3.3.6c-.2 0-.2.1-.1.1zm3.2.2c1.8.2 4.4-1.1 4.4-2.5 0-.1-.3-.2-.3 0-.1.7-1 1.3-1.7 1.6-.8.4-1.6.4-2.4.7-.1.1-.1.2 0 .2zm-12.2-.2c.8-.3 1.6-.8 2.4-1.2.1-.1 0-.2-.1-.1-.8.4-1.8.7-2.3 1.3-.2 0-.1.1 0 0z" fill="#634e45" stroke-width="none" opacity="1" stroke="none"></path><path id="SvgjsPath228901" d="M66.6 90.6s.1.1.2 0c.8-.6 1.5-1.2 2.2-1.7.8-.5 1.7-.9 2.5-1.3 1.7-.8 3.3-1.6 5.2-2.2 3.9.2 16.6 4.2 15.4-1.7v-.2c0-.1-.2-.1-.3 0v.1c-.1-.3-.4-.7-.9-.8-.1 0-.1 0-.1.1 0 0 .1 0 .1.1-.5-.3-1.3-.5-1.8-.4-3.9-1.1-9.3.2-12.8 1.3-4.1 1.4-7.7 3.6-9.8 6.5 0 .1 0 .1.1.2zm2.2-2c5.1-4.2 13.7-7.8 21.1-5.6.1 0 .2 0 .1-.1h.2c.5.1.8.3 1 .7.1.1.2 0 .2 0 0-.1 0-.2-.1-.3 0 0 .1 0 .1.1.2.2.3.4.2.7-.1.1-.2.1-.2.2 0 0 0 .1.1.1.2 0 .4-.1.5-.2-.4 5.1-11.9.6-15.5 1.2 0 0-.1 0-.1.1-2 .3-3.6 1.3-5.3 2.1-.9.2-1.6.6-2.3 1z" fill="#452c22" stroke-width="none" opacity="1" stroke="none"></path></g></g></g><g id="svga-group-eyebrows-right-move" transform="matrix(1,0,0,1,-1,2)"><g id="svga-group-eyebrows-right-rotate" transform="matrix(0.9914448857307434,-0.13052618503570557,0.13052618503570557,0.9914448857307434,-10.242959976196289,16.489105224609375)"><g id="svga-group-eyebrows-right"><path id="SvgjsPath228902" d="M133.1 90.3s-4.4-5-13.2-7.4c-4.4-1.2-11.1-.4-11.8.7-.6 1.1.2 1.8.5 2.3s2.5 1.2 5.8.8c1.3-.2 7.9-1.5 8.8-1.4 1 .1 7.5 2.5 9.9 5z" fill="#543c32" stroke-width="none" opacity="1" stroke="none"></path><path id="SvgjsPath228903" d="M122.8 84.9c-1.1-.3-2.3-.4-3.4-.7-.1 0-.2.1-.1.2 1.1.3 2.3.7 3.5.7.1 0 .1-.1 0-.2zm-7.9-1.5c-.1-.1-.2 0-.2.1.4.6 1.1.8 1.9 1 1.2.3 2.5.7 3.8.8.1 0 .1-.1.1-.2-1.7-.5-4.3-.5-5.6-1.7zm1.8 2.3c-1.1-.2-2.3-.3-3.3-.6s-1.9-.9-2.7-1.6c-.1-.1-.3 0-.2.1 1.2 1.5 3.9 2.5 6.3 2.2 0 .1 0 0-.1-.1zm-3.2.2c-.8-.2-1.7-.3-2.4-.7-.8-.4-1.6-.9-1.7-1.6 0-.1-.3-.1-.3 0 .1 1.4 2.6 2.7 4.4 2.5.2 0 .1-.1 0-.2zm12.3 0c-.6-.5-1.6-.9-2.4-1.2-.1 0-.2.1-.1.1.8.4 1.6.9 2.5 1.1 0 .1.1 0 0 0z" fill="#634e45" stroke-width="none" opacity="1" stroke="none"></path><path id="SvgjsPath228904" d="M133.5 90.4c-2.1-2.9-5.8-5.2-9.8-6.5-3.5-1.2-8.9-2.4-12.8-1.3-.5-.1-1.3.1-1.8.4 0 0 .1 0 .1-.1l-.1-.1c-.4.1-.8.4-.9.8v-.1c0-.1-.2-.1-.3 0v.2c-1.1 5.9 11.5 1.9 15.4 1.7 1.9.5 3.5 1.3 5.2 2.2.9.4 1.8.8 2.5 1.3.8.6 1.4 1.2 2.2 1.7h.2c.1-.1.1-.1.1-.2zm-4.6-3c-1.7-.8-3.3-1.8-5.3-2.1l-.1-.1c-3.6-.6-15 4-15.5-1.2.1.1.3.3.5.2.1 0 .1-.1.1-.1 0-.1-.1-.2-.2-.2-.1-.2 0-.5.2-.7 0 0 .1 0 .1-.1-.1.1-.1.2-.1.3 0 .1.2.1.2 0 .2-.3.5-.6 1-.7h.2c0 .1.1.1.1.1 7.4-2.1 15.9 1.5 21.1 5.6-.7-.2-1.4-.6-2.3-1z" fill="#452c22" stroke-width="none" opacity="1" stroke="none"></path></g></g></g><g id="svga-group-nose-single-move" transform="matrix(1,0,0,1,0,0)"><g id="svga-group-nose-single"><path id="SvgjsPath228877" d="M95.33 118.65c-.61.2-1.14.02-1.61-.54-1.06-.14-1.39-.64-.99-1.51.12-.67.3-1.35.45-2.01l.48-2.01c.05-.22.11-.45.16-.67.04-.84.54-1.34 1.51-1.5.08.23.45.21.45-.06-.01-.47-.26-.79-.62-.9.88-2.62 1.16-5.55 1.6-8.26.44-2.71.88-5.47.99-8.22 0-.09-.14-.11-.16-.02-.62 2.89-.98 5.85-1.47 8.77-.42 2.54-1.14 5.13-1.31 7.7-.14.01-.29.05-.44.12-1.22.6-1.31 3.11-1.57 4.22-.29 1.22-1.3 3.54-.46 4.76.7 1.01 2.1.81 3.08.46.21-.08.12-.37-.09-.33z" fill="#a9561f" stroke-width="none" opacity="1" transform="translate(0 2)" stroke="none"></path><path id="SvgjsPath228878" d="M103.43 117.15c-.32.2-.52.43-.8.66-1.15.95-2.17 1.37-3.66.71-1.64-.73-3.56-2.4-5.3-.98-.14.12.01.33.17.29 2.72-.62 4.01 1.73 6.51 1.84 2.13.09 2.98-2.22 5.03-2.35.19-.01.31-.29.11-.39-.76-.37-1.35-.22-2.06.22z" fill="#a9561f" stroke-width="none" opacity="1" transform="translate(0 2)" stroke="none"></path><path id="SvgjsPath228879" d="M104.99 108.61c-.16-2.24-.75-4.47-1.11-6.68-.4-2.43-.82-4.85-1.18-7.28-.01-.1-.18-.07-.17.02.46 4.57.74 9.59 2.16 13.98.05.16.31.14.3-.04z" fill="#a9561f" stroke-width="none" opacity="1" transform="translate(0 2)" stroke="none"></path><path id="SvgjsPath228880" d="M107.29 113.37c-.4-1.02-.8-3.06-1.71-3.79-.56-.45-1.23-.37-1.43.33-.04.14.14.2.22.09.68-.98 1.52 1.48 1.62 1.76.26.69.53 1.38.79 2.07.47 1.22 1.94 3.9-.33 4.44-.16.04-.21.3-.05.37.76.35 1.43-.02 1.83-.76.73-1.37-.44-3.25-.94-4.51z" fill="#a9561f" stroke-width="none" opacity="1" transform="translate(0 2)" stroke="none"></path><path id="SvgjsPath228881" d="M102.18 109.61c-.31-2.29-.62-4.59-.92-6.88-.27-2.1-.08-4.46-.94-6.42-.15-.34-.62-.19-.73.09-.58 1.58-.32 3.3-.27 4.95.05 1.73.06 3.45.22 5.17.15 1.6.33 3.18.57 4.77.21 1.38 1.29 4.02.05 4.96-.38.29-.45 1.05.15 1.15 4.19.72 2.14-5.81 1.87-7.79z" fill="#dfa077" stroke-width="none" opacity="1" transform="translate(0 2)" stroke="none"></path></g></g><g id="svga-group-hair-front"><path id="SvgjsPath228999" d="M77.1 48.8s-6.2-1.8-5.1-14S88.7 18 101.4 18s23.6 4.9 26.5 13.8c2.9 8.9.5 16.1-3.6 17.2s-47.2-.2-47.2-.2z" fill="#452c22" stroke-width="none" opacity="1" stroke="none"></path><path id="SvgjsPath229000" d="M134.7 54.9C123.8 36.7 100 38.1 100 38.1s-24.7-.9-35.7 17.2C54.1 72.3 57.1 88 57.1 88s2.2 2.2 3.5 10.2c.1.8 1.5.7 1.7-.2.5-2.6.2-8.2 1.9-15.6C67 70.6 76.4 60.5 86.5 57.6c5.4-1.6 22.5-.9 27.9.6 10.1 3 18.1 12.1 20.9 23.9 1.7 7.3 1.7 13.3 2.2 15.9.2.8 1.5 1 1.7.2 1.4-8 3.6-9.8 3.6-9.8s2.2-16.6-8.1-33.5zM129 36c-.2-1.3-.5-2.8-1-4.2-2.9-8.9-13.8-13.8-26.5-13.8-3.4 0-7.1.3-10.6 1.1-2.9 1.7-5.3 4.1-4.9 7.4 1.1 8 8.4 8.4 19 9.3 8.6.7 20.8 7.1 24 .2z" fill="#543c32" stroke-width="none" opacity="1" stroke="none"></path><path id="SvgjsPath229001" d="M64.1 64.6c.3-4.9 1.7-9.5 3.7-13.9-1.2 1.4-2.4 2.9-3.4 4.6-5.6 9.2-7.2 18.1-7.6 24.3.5 5.9 2.2 12.2 5.8 16.4.1-1.5.2-3.4.4-5.7-1.8-5-3.7-9.7-3.8-15.6-.1-5.6 1.2-10.6 3.2-15.4-1.9 7.3-1.7 15.5 2.2 21 0 .1.1.1.2.2.3-1 .7-2 1.1-3-.9-4.3-2.1-8.4-1.8-12.9zm6.6-16.7c-.9.8-1.8 1.6-2.6 2.5-2.4 7.3-3.4 16.1-.2 22.8.4-.8.9-1.5 1.4-2.3-.2-3.5-.8-6.9-.7-10.5.1-4.2.9-8.4 2.1-12.5zM72.2 59c0-4.6.8-9.1 1.8-13.6-.6.4-1.1.8-1.7 1.2-2.6 6.8-3.5 15.1-1.5 22.2.7-.8 1.3-1.6 2-2.4-.3-2.5-.6-4.9-.6-7.4zm6.6-16.3c-.9.4-1.8.9-2.6 1.3-3.1 6.4-4.6 15-2.8 21.9.9-.9 1.7-1.7 2.7-2.5-.4-2.2-.7-4.4-.6-6.7.1-5 1.5-9.5 3.3-14zm4.7-1.9c-.8.3-1.7.6-2.5.9-3 5.7-4.3 13.3-1.9 19.3.7-.5 1.4-.9 2.1-1.3-.8-6.7-.8-12.4 2.3-18.9zm1.7-.5c-1.3 5.9-2.1 12.1-.8 18 .4-.1.7-.3 1.1-.4 0-5.8-.3-11.5.7-17.3 0-.2-.1-.4-.2-.5-.3 0-.5.1-.8.2zm6.2-1.5c-.5.1-1 .2-1.6.3-1.1 5.8-1 12.1.2 17.9.5 0 1.1-.1 1.6-.1-.1-6.1-.3-12-.2-18.1zm4.7-.3c0-.1 0-.2-.1-.2-.3 0-.5 0-.8.1v.2c-.5 6-.5 12.3 1 18.2h1c-.4-6.2-1.1-12.2-1.1-18.3zm7.8 8.2c.2 3.4.2 6.8.5 10.2.3 0 .7 0 1 .1.6-6.4-1-12.5-1-18.7-.3 0-.6 0-.9-.1-.3 2.8.2 5.7.4 8.5zm7.9-5.6c.4 5.6 0 11-.8 16.5.5.1.9.2 1.4.2.9-5.5.9-11.1.3-16.7 0-.6-.9-.6-.9 0zm11 7.9c.1 4.3-.7 8.1-2.5 11.8.4.2.8.5 1.2.8 2.3-3.8 3.1-8.3 2.1-12.7 0-.5-.8-.4-.8.1zm6.6-.3c-.1-.6-.9-.4-.9.1-.4 5.6-1 10.9-2.6 16.2l.9.9c2.4-5.2 3.7-11.3 2.6-17.2zm-1.3 18.8c.3.4.7.8 1 1.3 3.2-3.9 5.3-8.8 5.7-13.8v-.1c-.6-.9-1.1-1.8-1.8-2.6-.7 5.5-2.1 10.4-4.9 15.2zm6.7-12.5c-.2 2.8-.3 5.5-1.1 8.2-.7 2.2-1.8 5.2-3.5 7.2.3.5.7 1.1 1 1.6 1.8-1.5 3-4.2 3.9-6.1 1-2.2 1.6-4.7 1.8-7.2-.7-1.3-1.4-2.5-2.1-3.7zm2.1 4.9c-1 4.2-1.7 10.1-4.8 13.7.3.5.5 1.1.8 1.6 1.7-1.5 2.8-3.8 3.6-5.7 1.1-2.5 1.8-5.1 1.7-7.8-.3-.7-.6-1.5-1-2.2-.1 0-.3.2-.3.4zm-.3 30.3c3-6.1 4.2-13.3 4.5-20.1-.6-2.2-1.3-4.5-2.2-6.9-.7 5.8-1.4 11.2-4.4 16.3.2.7.4 1.5.6 2.2 1.3-1.7 2.3-3.5 3.2-5.4-.7 2.9-1.6 5.7-2.5 8.6.4 1.9.6 3.7.8 5.3zm2.5 8c1.4-8 3.6-9.8 3.6-9.8s.4-2.7.1-6.9h-.1c0-.2.1-.5.1-.8-.1-1.9-.4-4.1-.8-6.5-.9 3.8-1.5 7.7-2.7 11.5-.7 2.3-1.6 4.4-2.5 6.6.2 1.8.3 3.3.4 4.5.3-.5.6-.9.8-1.4-.2.7-.5 1.5-.7 2.2 0 .1 0 .2.1.4.1.7 1.1.9 1.5.5 0-.1.1-.1.1-.2.1 0 .1-.1.1-.1zM89.7 26.1c.2-2.9 1.3-5.4 3.2-7.4l-1.5.3c-1.7 2.1-2.6 5-2.7 7.7-.1 1.5.1 3.9.8 6 .4.3.9.5 1.4.7-1.1-2.3-1.3-5.4-1.2-7.3zm24.2 11.5c3.3-3.5 6.6-10.4 5.6-15.5-.4-.2-.8-.5-1.2-.7 1.8 4.9-1.9 11.8-5.1 15.9.3.2.5.3.7.3zm11.9-9.9c.8 2 .7 4.1-1.1 6.2-2.2 2.4-5.2 4-8.4 4.4.8.2 1.6.3 2.3.5 3.5-.7 7.1-3.5 8.3-6.5.2-.6.4-1.3.4-1.9-.3-1-.9-1.9-1.5-2.7zm-28.1-9.6c-.3 0-.6 0-1 .1-1.6 5.4-.8 12.2 1.7 17 .3 0 .5.1.8.1-2.3-5.1-3-11.6-1.5-17.2zm11.9 18.5c3.4-5.1 4.8-11.8 2.4-17.4l-1.2-.3c2.4 5.9 1.2 11.7-1.9 17.5.2.1.5.1.7.2zm-4.7-.8h.2c.4-4.9.7-12.6-1.7-17.8h-1.2c2.6 5.1 2.2 12.4 2.2 17.8h.5z" fill="#452c22" stroke-width="none" opacity="1" stroke="none"></path><path id="SvgjsPath229002" d="M119.9 43.2c0-.2-.5-.2-.4.1.5 4.1.1 7.9-.5 12 0 .3.4.4.5.1 1.2-3.9 1-8.2.4-12.2zm-1 .8c0-.2-.3-.2-.3 0-.2 3.8-.6 7.5-.9 11.2 0 .3.4.3.4.1.9-3.7 1.1-7.7.8-11.3zm-1.5 0c0-.2-.4-.3-.4 0 0 3.3-.4 6.5-.7 9.8 0 .3.4.3.5.1.8-3.2.8-6.7.6-9.9zm-2 .3c0-.2-.3-.2-.3 0 .1 2.8-.2 5.5-.2 8.3 0 .3.4.4.5.1.4-2.8.3-5.7 0-8.4zm-2-.9c0-.1-.2-.1-.2 0 .3 2.3.3 4.5.3 6.8 0 .2.2.2.2 0 .2-2.2 0-4.5-.3-6.8zm-3.2-1.5c0-.4-.7-.4-.7 0 0 4.6-.5 9.2-.6 13.7 0 .3.5.4.6.1 1.1-4.5 1.1-9.2.7-13.8zm-2.1.2c0-.2-.4-.2-.4 0 0 4.1-.3 8.1-.3 12.2 0 .2.4.3.4.1.6-4.1.5-8.2.3-12.3zm-2.1.8c0-.2-.4-.2-.4 0-.1 3.7-.4 7.3-.2 11 0 .3.4.3.4 0 .4-3.6.2-7.3.2-11zm-4.5-.8c0-.3-.4-.3-.4 0-.3 4-.4 8.2.1 12.2 0 .4.6.4.6 0 .1-4.1-.2-8.2-.3-12.2zm-1.8 1c0-.3-.4-.3-.4 0-.1 3.5-.4 7.2.1 10.8 0 .3.5.2.5-.1.1-3.6-.3-7.1-.2-10.7zm-2 .2c0-.4-.5-.3-.6 0-.4 3.2-.6 6.6 0 9.7.1.3.6.2.6-.1 0-3.2-.2-6.4 0-9.6zm-4.2.3c-.5 3.7-.8 7.5-.3 11.2 0 .3.5.3.5 0 0-3.7-.1-7.5.2-11.2 0-.2-.4-.3-.4 0zm-6.2-.7c-.4 3.8-.7 7.7-.2 11.5 0 .2.4.3.4 0 .1-3.8.1-7.7.2-11.5 0-.3-.4-.2-.4 0zm-3.3 1c-.7 3.7-1.1 7.7-.8 11.4 0 .4.6.4.6 0 .2-3.8.3-7.6.6-11.4 0-.2-.4-.2-.4 0zm-1.7 2c-.8 3.3-1.3 6.9-.9 10.2 0 .3.4.3.5 0 .2-3.4.4-6.7.8-10.1 0-.2-.3-.3-.4-.1zm-4.5-.2c.1-.3-.3-.4-.4-.1-1.5 4.1-2 8.4-1.2 12.7.1.2.4.2.4-.1-.1-4.3.2-8.4 1.2-12.5zm44.1 1.5c0-.4-.6-.4-.6 0-.1 3.8-.6 7.6-.8 11.4 0 .3.5.4.5.1 1-3.8 1.1-7.8.9-11.5zm3.9.2c0-.2-.4-.2-.4.1.2 4.1-.1 7.9-.8 12-.1.3.4.4.5.1 1.2-3.9 1.4-8.1.7-12.2zm1.1 4.3c0-.2-.3-.2-.3 0-.1 3.6-.7 7.1-1.4 10.6 0 .2.3.3.3.1 1.2-3.4 1.6-7 1.4-10.7zm4.5.2c0-.3-.4-.3-.4 0-.4 4.1-1.3 7.8-2.4 11.8-.1.3.3.4.4.2 2-3.5 2.7-8 2.4-12zm2.2 7.4c-.5 2.7-1.3 5.3-2.3 7.8-.1.2.2.3.4.2 1.4-2.4 2.1-5.1 2.5-7.9 0-.4-.6-.4-.6-.1zm.7 6.3c-.3.6-.6 1.2-.8 1.9 0 .1.2.2.2.1l.9-1.8c.2-.3-.2-.5-.3-.2zm2.9 0c-.7 3.4-1.7 6.5-2.6 9.8-.1.3.3.4.4.2 1.7-2.9 2.5-6.6 2.6-10 .1-.2-.3-.3-.4 0zm1.1 4.2c-1.1 2.8-2.4 5.6-3.2 8.5-.1.3.4.6.6.2 1.3-2.7 2.2-5.7 3.2-8.6.1-.3-.5-.5-.6-.1zm-.1 7.3c-.3.9-.8 1.8-.9 2.8 0 .2.3.4.4.2.5-.8.8-1.8 1.2-2.7.2-.6-.5-.7-.7-.3zm-14.4-50.3c-.8 2.1-1.7 4.1-3 5.9-1.3 1.8-3.1 3.1-4.6 4.8-.2.2 0 .4.3.3 4-1.7 7-6.8 7.8-10.9.1-.3-.4-.5-.5-.1zm-1.9.6c-1.3 3.1-3.1 5.6-4.9 8.4-.2.3.2.6.5.4 2.3-2.3 3.9-5.5 4.8-8.6-.1-.2-.3-.4-.4-.2zm-6.5-4.3c-.2 3.6-1.1 6.8-2.2 10.2-.1.3.4.5.5.2 1.8-3.1 2.4-6.9 2.3-10.5.1-.3-.5-.3-.6.1zm-1.9 1.9c-.1 2.5-.8 4.6-1.6 6.9-.1.3.3.5.5.2 1.2-2.1 1.6-4.7 1.6-7.1 0-.4-.5-.4-.5 0zm-4.2-3.1c-.2-.1-.4.2-.2.4.8.8.2 4.2.1 5.2-.2 1.8-.6 3.7-.9 5.5-.1.3.3.4.5.1.9-2.5 1.3-5 1.4-7.6 0-1 .4-3.2-.9-3.6zm-2.1 1.8c-.1-.3-.4-.1-.4.1.5 3.7 0 7.1-.7 10.7-.1.3.4.4.5.1 1.3-3.4 1.3-7.2.6-10.9zm-4.3-1.5c0-.3-.5-.4-.5-.1-.6 4-.8 8.2.2 12.2.1.2.4.2.4-.1-.2-4-.5-7.9-.1-12zm-2.1-.6c0-.3-.4-.2-.4 0-.4 3.6-.5 7.6.5 11.1.1.2.4.2.4-.1-.1-3.7-.7-7.3-.5-11zm-2.1.6c0-.3-.4-.3-.5 0-.4 3.5-.4 7.1.7 10.6.1.3.5.2.5-.1-.6-3.5-1-6.9-.7-10.5zm-4.3.8c.1-.3-.4-.5-.5-.1-.8 3.1-.8 6.6.3 9.6.1.3.6.2.5-.1-.5-3.3-.8-6.2-.3-9.4zm-2.5.4c0-.2-.3-.2-.4 0-.4 3.4-.1 6.6 1.3 9.8.1.2.4 0 .3-.1-.9-3.2-1.3-6.4-1.2-9.7zm-5-.1c-1.6 3-2 6.6-.4 9.8.1.3.6.1.5-.2-.9-3.1-1.1-6.2.4-9.3.2-.4-.3-.7-.5-.3zm-2.2 1.1c0-.3-.4-.3-.4 0-.3 3.2-.1 6.5 1.2 9.5.1.3.5.1.4-.2-.8-3.1-1.4-6.1-1.2-9.3z" fill="#634e45" stroke-width="none" opacity="1" stroke="none"></path></g><g id="svga-group-glasses-single-move" transform="matrix(1,0,0,1,0,1)"><g id="svga-group-glasses-single"><path id="SvgjsPath228933" d="M74.11 89.07c-2.58.84-5.8 4.34-5.23 11.22.57 6.89 4.46 9.5 8.1 10.84 3.63 1.34 9.18 1.21 13.33-2.55 4.14-3.76 5.1-8.1 4.78-10.84-.32-2.74-2.74-7.01-6.69-8.48-3.96-1.46-8.04-2.23-14.29-.19z" fill="url(#SvgjsLinearGradient228934)" opacity="1"></path><path id="SvgjsPath228939" d="M125.89 89.07c2.58.84 5.8 4.34 5.23 11.22-.57 6.89-4.46 9.5-8.1 10.84-3.63 1.34-9.18 1.21-13.33-2.55-4.14-3.76-5.1-8.1-4.78-10.84.32-2.74 2.74-7.01 6.69-8.48 3.96-1.46 8.04-2.23 14.29-.19z" fill="url(#SvgjsLinearGradient228940)" opacity="1"></path><path id="SvgjsPath228945" d="M118.3 112.69c-4.3 0-8.55-2.29-11.35-6.13-3.22-4.4-3.93-9.13-4.01-9.77.29-.2 1.45-1.07 1.28-2.19-.18-1.13-2.93-1.22-3.77-1.22h-.91c-.84 0-3.59.09-3.77 1.22-.17 1.13.99 2 1.28 2.19-.08.63-.8 5.37-4.01 9.77-2.8 3.84-7.05 6.13-11.35 6.13-2.08 0-4.19-.51-6.28-1.51-6.97-3.36-7.3-9.16-7.51-13.01-.02-.34-.04-.67-.06-.98-.25-3.49-2.39-3.85-2.95-3.88v-3.54c.17.01.34.01.52.01 2.49 0 4.8-.67 7.23-1.37 2.65-.77 5.4-1.56 8.64-1.56.5 0 1.01.02 1.53.06 4.6.36 6.9 1.86 8.42 2.85.49.32.92.6 1.32.78.62.27 1.45.4 2.62.4.88 0 1.83-.07 2.75-.14.61-.05 1.2-.09 1.75-.11h.65c.54.02 1.14.07 1.75.11.92.07 1.86.14 2.75.14 1.17 0 2.01-.13 2.62-.4.4-.18.83-.46 1.32-.78 1.52-.99 3.82-2.49 8.42-2.85.52-.04 1.03-.06 1.53-.06 3.24 0 5.98.79 8.64 1.56 2.44.7 4.74 1.37 7.23 1.37.17 0 .34 0 .51-.01v3.54c-.59.04-2.7.43-2.95 3.88-.02.31-.04.64-.06.98-.22 3.84-.55 9.65-7.51 13.01-2.07 1-4.19 1.51-6.27 1.51zm.95-24.42c-1.6 0-3.27.24-4.96.71-3.65 1.02-6.83 3.7-8.1 6.84-1.14 2.83-.79 5.97 1.03 9.07 2.44 4.15 6.52 6.54 11.22 6.54 3.04 0 6-1.02 8.13-2.79 4.9-4.07 5.21-12.2 2.2-16.22-1.94-2.59-5.5-4.15-9.52-4.15zm-38.5 0c-4.02 0-7.58 1.55-9.53 4.16-3.01 4.02-2.7 12.15 2.2 16.22 2.13 1.77 5.1 2.79 8.13 2.79 4.7 0 8.78-2.38 11.22-6.54 1.82-3.11 2.18-6.24 1.03-9.07-1.27-3.14-4.45-5.83-8.1-6.84-1.68-.48-3.34-.72-4.95-.72z" fill="#2c2c2c" stroke-width="none" opacity="1" stroke="none"></path><path id="SvgjsPath228946" d="M118.72 86.97c3.22 0 5.96.79 8.6 1.55 2.45.71 4.76 1.37 7.27 1.37.13 0 .26 0 .4-.01v3.3c-.71.08-2.7.6-2.95 3.98-.02.31-.04.64-.06.98-.22 3.82-.54 9.58-7.45 12.91-2.07 1-4.16 1.5-6.23 1.5-4.26 0-8.47-2.27-11.25-6.08-3.1-4.24-3.86-8.79-3.98-9.64.38-.27 1.44-1.14 1.27-2.27-.18-1.19-2.78-1.32-3.88-1.32h-.91c-1.11 0-3.7.13-3.88 1.32-.17 1.13.89 2 1.27 2.27-.12.85-.88 5.4-3.98 9.64-2.78 3.81-6.99 6.08-11.25 6.08-2.06 0-4.16-.51-6.23-1.5-6.9-3.33-7.23-9.09-7.45-12.91-.02-.34-.04-.67-.06-.98-.24-3.35-2.21-3.89-2.95-3.98V89.9c.13 0 .26.01.4.01 2.51 0 4.82-.67 7.27-1.37 2.65-.76 5.38-1.55 8.6-1.55.51 0 1.02.02 1.52.06 4.57.36 6.85 1.85 8.37 2.83.5.32.92.6 1.34.79.63.28 1.48.41 2.67.41.89 0 1.84-.07 2.75-.14.62-.05 1.2-.09 1.74-.11h.64c.55.02 1.13.07 1.75.11.92.07 1.87.14 2.75.14 1.19 0 2.04-.13 2.67-.41.41-.18.84-.46 1.34-.79 1.51-.99 3.8-2.48 8.37-2.83.5-.06 1.01-.08 1.52-.08m-.28 24.59c3.06 0 6.06-1.03 8.21-2.81 4.95-4.11 5.26-12.32 2.22-16.38-1.97-2.63-5.57-4.21-9.63-4.21-1.61 0-3.29.24-4.99.71-3.68 1.03-6.9 3.74-8.18 6.91-1.16 2.87-.8 6.04 1.04 9.18 2.47 4.19 6.59 6.6 11.33 6.6m-36.88 0c4.74 0 8.86-2.4 11.32-6.6 1.84-3.14 2.2-6.31 1.04-9.18-1.28-3.17-4.49-5.89-8.18-6.91-1.7-.47-3.38-.71-4.99-.71-4.06 0-7.66 1.57-9.63 4.21-3.04 4.06-2.72 12.28 2.22 16.38 2.16 1.78 5.15 2.81 8.22 2.81m37.16-24.83c-.5 0-1.02.02-1.54.06-6.08.48-8.12 2.9-9.78 3.64-.67.3-1.58.39-2.57.39-1.47 0-3.12-.2-4.49-.26h-.65c-1.37.05-3.03.26-4.49.26-1 0-1.9-.09-2.57-.39-1.66-.74-3.7-3.16-9.78-3.64-.53-.04-1.04-.06-1.54-.06-6.23 0-10.68 2.93-15.87 2.93-.21 0-.42 0-.63-.01v3.77h.02c.22 0 2.67.08 2.93 3.77.28 3.87 0 10.4 7.64 14.09 2.21 1.07 4.34 1.53 6.33 1.53 4.89 0 8.96-2.77 11.45-6.18 3.5-4.79 4.04-9.9 4.04-9.9s-1.47-.92-1.29-2.12c.16-1.06 3.01-1.12 3.65-1.12h.91c.64 0 3.48.06 3.65 1.12.18 1.2-1.29 2.12-1.29 2.12s.55 5.11 4.04 9.9c2.49 3.4 6.56 6.18 11.45 6.18 1.99 0 4.12-.46 6.33-1.53 7.64-3.68 7.37-10.22 7.64-14.09.26-3.69 2.71-3.77 2.93-3.77h.02v-3.77c-.21.01-.42.01-.63.01-5.24 0-9.69-2.92-15.91-2.93zm-.28 24.59c-4.11 0-8.42-1.88-11.12-6.48-4.7-8.01 1.38-14.18 7-15.74 1.74-.49 3.39-.7 4.93-.7 4.29 0 7.65 1.72 9.44 4.11 3 4.01 2.7 12.01-2.18 16.06-2.09 1.71-5.02 2.75-8.07 2.75zm-36.88 0c-3.05 0-5.98-1.03-8.06-2.76-4.88-4.05-5.18-12.05-2.18-16.06 1.79-2.39 5.14-4.11 9.44-4.11 1.53 0 3.18.22 4.93.7 5.62 1.57 11.69 7.73 7 15.74-2.71 4.61-7.02 6.49-11.13 6.49z" fill="#0d0d0d" stroke-width="none" opacity="1" stroke="none"></path></g></g></g></g></g><rect id="svga-credit-rect" width="200" height="15" x="0" y="185" fill="#ecf0f1" opacity="0.5" style="display: none;"></rect><text id="svga-credit-text" font-family="Avenir Next, Roboto, Helvetica, Arial, sans-serif" font-size="10px" text-anchor="start" font-weight="400" size="10px" anchor="start" weight="400" fill="#333333" x="33.311859130859375" y="182.7113401889801" style="display: none;"><tspan id="SvgjsTspan228677" dy="13" x="33.311859130859375">Created on AvatarMaker.com</tspan></text></g><defs id="SvgjsDefs228629"><linearGradient id="SvgjsLinearGradient228934" x1="81.9825" y1="87.8318" x2="81.9825" y2="111.9101" gradientUnits="userSpaceOnUse" class="svga-on-canvas-glasses-gradient-single-0-null"><stop id="SvgjsStop228935" stop-opacity="1" stop-color="#9ab4d3" offset="0" ></stop><stop id="SvgjsStop228936" stop-opacity="0.7593" stop-color="#93aed1" offset="0.2407" ></stop><stop id="SvgjsStop228937" stop-opacity="0.4009" stop-color="#7e9ecc" offset="0.5991" ></stop><stop id="SvgjsStop228938" stop-opacity="0" stop-color="#6086c4" offset="1" ></stop></linearGradient><linearGradient id="SvgjsLinearGradient228940" x1="-18.0175" y1="87.8318" x2="-18.0175" y2="111.9101" gradientTransform="matrix(-1 0 0 1 100 0)" gradientUnits="userSpaceOnUse" class="svga-on-canvas-glasses-gradient-single-1-null"><stop id="SvgjsStop228941" stop-opacity="1" stop-color="#9ab4d3" offset="0" ></stop><stop id="SvgjsStop228942" stop-opacity="0.7593" stop-color="#93aed1" offset="0.2407" ></stop><stop id="SvgjsStop228943" stop-opacity="0.4009" stop-color="#7e9ecc" offset="0.5991" ></stop><stop id="SvgjsStop228944" stop-opacity="0" stop-color="#6086c4" offset="1" ></stop></linearGradient></defs></svg>